<?xml version="1.0" encoding="UTF-8" standalone="no"?>
<!-- Created with Inkscape (http://www.inkscape.org/) -->
<svg xmlns:svg="http://www.w3.org/2000/svg" xmlns="http://www.w3.org/2000/svg" version="1.0" width="956.69287" height="429.09448" id="svg2">
  <defs id="defs4"/>
  <g transform="translate(92.50346,-324.90186)" id="layer1">
    <g transform="translate(35.43305,35.458497)" id="g3847">
      <polygon points="170.497,219.307 173.675,219.307 171.304,230.329 175.945,230.329 173.937,232.874 167.651,232.874 170.497,219.307 " transform="matrix(17.147114,0,0,17.147114,-2762.9607,-3435.4088)" id="polygon3660" style="fill:#822912"/>
      <polygon points="192.902,219.311 190.009,219.311 187.115,232.863 190.009,232.863 192.902,219.311 " transform="matrix(17.147114,0,0,17.147114,-2762.9607,-3435.4088)" id="polygon3662" style="fill:#822912"/>
      <polygon points="182.244,228.04 184.296,225.469 186.67,232.863 183.777,232.863 182.244,228.04 " transform="matrix(17.147114,0,0,17.147114,-2762.9607,-3435.4088)" id="polygon3664" style="fill:#822912"/>
      <polygon points="182.033,223.703 180.019,226.213 177.71,219.309 180.696,219.309 182.033,223.703 " transform="matrix(17.147114,0,0,17.147114,-2762.9607,-3435.4088)" id="polygon3666" style="fill:#822912"/>
      <polygon points="185.724,219.297 185.089,219.297 172.199,235.744 172.834,235.744 185.724,219.297 " transform="matrix(17.147114,0,0,17.147114,-2762.9607,-3435.4088)" id="polygon3668" style="fill:#822912"/>
      <polygon points="186.931,219.297 186.296,219.297 173.405,235.744 174.04,235.744 186.931,219.297 " transform="matrix(17.147114,0,0,17.147114,-2762.9607,-3435.4088)" id="polygon3670" style="fill:#822912"/>
      <polygon points="188.137,219.297 187.502,219.297 174.612,235.744 175.247,235.744 188.137,219.297 " transform="matrix(17.147114,0,0,17.147114,-2762.9607,-3435.4088)" id="polygon3672" style="fill:#822912"/>
      <polygon points="189.344,219.297 188.709,219.297 175.818,235.744 176.453,235.744 189.344,219.297 " transform="matrix(17.147114,0,0,17.147114,-2762.9607,-3435.4088)" id="polygon3674" style="fill:#822912"/>
      <polygon points="194.202,220.178 194.035,220.178 194.035,219.519 193.793,219.519 193.793,219.378 194.444,219.378 194.444,219.519 194.202,219.519 194.202,220.178 " transform="matrix(17.147114,0,0,17.147114,-2762.9607,-3435.4088)" id="polygon3676" style="fill:#822912"/>
      <polygon points="195.311,220.178 195.155,220.178 195.155,219.51 195.152,219.51 195.003,220.178 194.839,220.178 194.694,219.51 194.691,219.51 194.691,220.178 194.535,220.178 194.535,219.378 194.779,219.378 194.924,220.008 194.926,220.008 195.069,219.378 195.311,219.378 195.311,220.178 " transform="matrix(17.147114,0,0,17.147114,-2762.9607,-3435.4088)" id="polygon3678" style="fill:#822912"/>
      <polygon points="155.738,240.132 157.224,240.132 157.224,239.766 156.172,239.766 156.172,237.411 155.738,237.411 155.738,240.132 " transform="matrix(17.147114,0,0,17.147114,-2762.9607,-3435.4088)" id="polygon3680" style="fill:#7f2607"/>
      <path d="M -54.95128,664.77481 L -49.39733,641.77881 L -49.267012,641.77881 L -43.908539,664.77481 L -54.95128,664.77481 z M -67.101725,682.15341 L -59.327224,682.15341 L -56.321335,670.71971 L -42.668802,670.71971 L -39.793231,682.15341 L -32.01873,682.15341 L -44.301208,635.5064 L -53.840147,635.5064 L -67.101725,682.15341 L -67.101725,682.15341 z" id="path3682" style="fill:#7f2607"/>
      <polygon points="159.455,240.132 159.867,240.132 159.867,238.052 159.875,238.052 160.663,240.132 161.193,240.132 161.193,237.411 160.781,237.411 160.781,239.438 160.774,239.438 159.985,237.411 159.455,237.411 159.455,240.132 " transform="matrix(17.147114,0,0,17.147114,-2762.9607,-3435.4088)" id="polygon3684" style="fill:#7f2607"/>
      <path d="M 49.954763,665.49498 L 49.954763,661.77063 C 49.954763,651.97106 47.339828,646.09302 37.540253,646.09302 C 26.499226,646.09131 24.539311,655.8926 24.539311,665.10403 C 24.539311,681.36978 31.660507,683.06906 37.409935,683.06906 C 45.054118,683.06906 49.757571,678.17013 49.757571,670.39563 L 43.094203,670.39563 C 43.094203,672.48586 42.506057,678.23529 37.475094,678.23529 C 32.183494,678.23529 31.595348,672.22523 31.595348,667.52006 L 31.595348,665.49498 L 49.954763,665.49498 L 49.954763,665.49498 z M 31.595348,660.66121 L 31.595348,659.94275 C 31.595348,655.36961 32.967117,650.9268 37.475094,650.9268 C 41.461798,650.9268 42.897011,654.32364 42.897011,658.76646 L 42.898726,660.66121 L 31.595348,660.66121 z" id="path3686" style="fill:#7f2607"/>
      <polygon points="164.186,240.132 164.655,240.132 165.139,239.149 165.611,240.132 166.091,240.132 165.398,238.749 166.057,237.411 165.589,237.411 165.162,238.315 164.727,237.411 164.247,237.411 164.903,238.749 164.186,240.132 " transform="matrix(17.147114,0,0,17.147114,-2762.9607,-3435.4088)" id="polygon3688" style="fill:#7f2607"/>
      <path d="M 85.277818,652.24027 L 90.113304,652.24027 L 90.113304,674.05997 C 90.113304,681.24632 92.464174,682.55293 97.232786,682.55293 C 99.455052,682.55293 101.41497,682.35746 102.91705,681.9665 L 102.91705,676.73835 C 102.26375,676.87038 101.41497,676.93554 100.36899,676.93554 C 97.952965,676.93554 97.167627,675.95472 97.167627,673.21119 L 97.169342,652.24027 L 102.91705,652.24027 L 102.91705,647.01382 L 97.169342,647.01382 L 97.169342,637.01877 L 90.113304,637.01877 L 90.113304,647.01382 L 85.277818,647.01382 L 85.277818,652.24027 L 85.277818,652.24027 z" id="path3690" style="fill:#7f2607"/>
      <path d="M 131.00917,665.49498 L 131.00917,661.77063 C 131.00917,651.97106 128.39424,646.09302 118.59466,646.09302 C 107.55363,646.09131 105.59372,655.8926 105.59372,665.10403 C 105.59372,681.36978 112.71492,683.06906 118.46434,683.06906 C 126.10853,683.06906 130.81198,678.17013 130.81198,670.39563 L 124.14861,670.39563 C 124.14861,672.48586 123.55875,678.23529 118.5295,678.23529 C 113.2379,678.23529 112.64976,672.22523 112.64976,667.52006 L 112.64976,665.49498 L 131.00917,665.49498 L 131.00917,665.49498 z M 112.64976,660.66121 L 112.64976,659.94275 C 112.64976,655.36961 114.02153,650.9268 118.5295,650.9268 C 122.51621,650.9268 123.95142,654.32364 123.95142,658.76646 L 123.95313,660.66121 L 112.64976,660.66121 z" id="path3692" style="fill:#7f2607"/>
      <path d="M 136.82204,682.16198 L 143.87637,682.16198 L 143.87637,658.57784 C 143.87637,654.0047 146.62162,651.71728 149.49547,651.71728 C 153.02264,651.71728 154.39612,653.48172 154.39612,658.05485 L 154.39612,682.16198 L 161.45216,682.16198 L 161.45216,655.63711 C 161.45216,648.51591 158.0536,646.09988 152.69684,646.09988 C 148.77701,646.09817 145.44533,647.99464 143.68089,651.12913 L 143.48541,651.12913 L 143.48541,647.01382 L 136.82204,647.01382 L 136.82204,682.16198 L 136.82204,682.16198 z" id="path3694" style="fill:#7f2607"/>
      <path d="M 190.06383,657.26437 L 190.06383,655.69541 C 190.06383,651.31775 188.03876,646.09302 179.08796,646.09302 C 171.83645,646.09131 167.06784,649.16236 167.06784,655.76057 C 167.06784,661.37968 169.28839,664.05806 174.57999,665.88765 L 180.32942,667.91273 C 182.81232,668.76151 184.18409,670.46079 184.18409,673.07401 C 184.18409,676.27537 182.28933,678.23529 178.43466,678.23529 C 174.38451,678.23529 172.94758,676.01302 172.94758,671.96288 L 172.94758,670.85174 L 166.67688,670.85174 L 166.67688,672.15835 C 166.67688,678.95375 169.35355,683.06906 178.23918,683.06906 C 185.36038,683.06906 190.84745,679.8677 190.84745,672.35554 C 190.84917,666.80159 188.42971,663.9929 183.20327,662.22846 L 178.69701,660.66121 C 174.97266,659.3546 173.73121,658.24347 173.73121,655.49993 C 173.73121,652.23341 175.95176,650.9268 178.76217,650.9268 C 182.41965,650.9268 183.40046,653.54002 183.40046,656.34871 L 183.40046,657.26437 L 190.06383,657.26437 L 190.06383,657.26437 z" id="path3696" style="fill:#7f2607"/>
      <path d="M 196.39112,682.16198 L 203.44715,682.16198 L 203.44715,647.01382 L 196.39112,647.01382 L 196.39112,682.16198 z M 196.39112,642.04802 L 203.44715,642.04802 L 203.44715,634.99198 L 196.39112,634.99198 L 196.39112,642.04802 z" id="path3698" style="fill:#7f2607"/>
      <path d="M 209.18286,664.58619 C 209.18286,675.49518 212.51283,683.07421 222.24725,683.07421 C 232.04854,683.07421 235.37851,675.4969 235.37851,664.58619 C 235.37851,653.67548 232.50465,646.09817 222.24725,646.09817 C 212.05501,646.09645 209.18115,653.67548 209.18115,664.58619 L 209.18286,664.58619 z M 216.23719,664.58619 C 216.23719,656.81169 217.15113,651.32461 222.24725,651.32461 C 227.40853,651.32289 228.32247,656.81169 228.32247,664.58619 C 228.32419,673.53527 227.40853,677.84777 222.24725,677.84777 C 217.15284,677.84777 216.23719,673.53698 216.23719,664.58619 L 216.23719,664.58619 z" id="path3700" style="fill:#7f2607"/>
      <path d="M 240.80214,682.16198 L 247.85818,682.16198 L 247.85818,658.57784 C 247.85818,654.0047 250.60172,651.71728 253.47729,651.71728 C 257.00445,651.71728 258.37622,653.48172 258.37622,658.05485 L 258.37793,682.16198 L 265.43226,682.16198 L 265.43226,655.63711 C 265.43226,648.51591 262.03541,646.09988 256.67694,646.09988 C 252.75711,646.09817 249.42543,647.99464 247.6627,651.12913 L 247.46723,651.12913 L 247.46723,647.01382 L 240.80214,647.01382 L 240.80214,682.16198 L 240.80214,682.16198 z" id="path3702" style="fill:#7f2607"/>
      <path d="M 294.04393,657.26437 L 294.04393,655.69541 C 294.04393,651.31775 292.01714,646.09302 283.06806,646.09302 C 275.81655,646.09131 271.04622,649.16236 271.04622,655.76057 C 271.04622,661.37968 273.26849,664.05806 278.56009,665.88765 L 284.30951,667.91273 C 286.7907,668.76151 288.16247,670.46079 288.16247,673.07401 C 288.16419,676.27537 286.26771,678.23529 282.41476,678.23529 C 278.36461,678.23529 276.92597,676.01302 276.92597,671.96288 L 276.92597,670.85174 L 270.65527,670.85174 L 270.65527,672.15835 C 270.65527,678.95375 273.33365,683.06906 282.21757,683.06906 C 289.33876,683.06906 294.82755,679.8677 294.82755,672.35554 C 294.82755,666.80159 292.40981,663.9929 287.18337,662.22846 L 282.67539,660.66121 C 278.95104,659.3546 277.70959,658.24347 277.70959,655.49993 C 277.7113,652.23341 279.93186,650.9268 282.74055,650.9268 C 286.39975,650.9268 287.37885,653.54002 287.37885,656.34871 L 287.37885,657.26437 L 294.04393,657.26437 L 294.04393,657.26437 z" id="path3704" style="fill:#7f2607"/>
      <path d="M 319.43881,682.16198 L 326.49656,682.16198 L 326.49656,652.24027 L 332.24427,652.24027 L 332.24427,647.01382 L 326.49656,647.01382 L 326.49656,643.94278 C 326.49656,641.59191 327.67114,640.61109 330.28436,640.61109 L 332.24427,640.61109 L 332.24427,635.18917 C 331.1983,635.05886 329.89169,634.9937 328.3896,634.9937 C 322.64189,634.99198 319.43881,637.08393 319.43881,643.7473 L 319.43881,647.01382 L 314.53988,647.01382 L 314.53988,652.24027 L 319.43881,652.24027 L 319.43881,682.16198 L 319.43881,682.16198 z" id="path3706" style="fill:#7f2607"/>
      <path d="M 334.0653,664.58619 C 334.0653,675.49518 337.39526,683.07421 347.12968,683.07421 C 356.93097,683.07421 360.26094,675.4969 360.26094,664.58619 C 360.26266,653.67548 357.38708,646.09817 347.12968,646.09817 C 336.93915,646.09645 334.06358,653.67548 334.06358,664.58619 L 334.0653,664.58619 z M 341.12133,664.58619 C 341.12133,656.81169 342.03527,651.32461 347.12968,651.32461 C 352.29096,651.32289 353.20662,656.81169 353.20662,664.58619 C 353.20662,673.53527 352.29096,677.84777 347.12968,677.84777 C 342.03527,677.84777 341.11962,673.53698 341.11962,664.58619 L 341.12133,664.58619 z" id="path3708" style="fill:#7f2607"/>
      <path d="M 365.68457,682.16198 L 372.7389,682.16198 L 372.7389,661.12418 C 372.7389,654.59113 376.59357,653.15421 379.79493,653.15421 C 380.97294,653.15421 382.21268,653.41656 382.73566,653.54688 L 382.73738,646.36052 C 382.27955,646.2302 381.82001,646.09988 381.03638,646.09988 C 377.05311,646.09817 374.43818,648.58107 372.87093,652.5009 L 372.7389,652.5009 L 372.7389,647.01382 L 365.68457,647.01382 L 365.68457,682.16198 L 365.68457,682.16198 z" id="path3710" style="fill:#7f2607"/>
      <polygon points="184.672,240.132 185.106,240.132 185.106,237.411 184.672,237.411 184.672,240.132 " transform="matrix(17.147114,0,0,17.147114,-2762.9607,-3435.4088)" id="polygon3712" style="fill:#7f2607"/>
      <path d="M 418.00042,682.16198 L 425.05474,682.16198 L 425.05474,658.57784 C 425.05474,654.0047 427.79828,651.71728 430.67385,651.71728 C 434.20101,651.71728 435.57278,653.48172 435.57278,658.05485 L 435.5745,682.16198 L 442.63053,682.16198 L 442.63053,655.63711 C 442.63053,648.51591 439.23197,646.09988 433.87522,646.09988 C 429.95539,646.09817 426.6237,647.99464 424.85926,651.12913 L 424.66379,651.12913 L 424.66379,647.01382 L 418.00042,647.01382 L 418.00042,682.16198 L 418.00042,682.16198 z" id="path3714" style="fill:#7f2607"/>
      <path d="M 471.24221,657.26437 L 471.24221,655.69541 C 471.24221,651.31775 469.21542,646.09302 460.26634,646.09302 C 453.01482,646.09131 448.2445,649.16236 448.2445,655.76057 C 448.24621,661.37968 450.46676,664.05806 455.75836,665.88765 L 461.50779,667.91273 C 463.98898,668.76151 465.36246,670.46079 465.36246,673.07401 C 465.36246,676.27537 463.46771,678.23529 459.61303,678.23529 C 455.56289,678.23529 454.12424,676.01302 454.12424,671.96288 L 454.12596,670.85174 L 447.85526,670.85174 L 447.85526,672.15835 C 447.85526,678.95375 450.53192,683.06906 459.41584,683.06906 C 466.53875,683.06906 472.02583,679.8677 472.02583,672.35554 C 472.02754,666.80159 469.60809,663.9929 464.38165,662.22846 L 459.87367,660.66121 C 456.14932,659.3546 454.90958,658.24347 454.90958,655.49993 C 454.90958,652.23341 457.13013,650.9268 459.93883,650.9268 C 463.59802,650.9268 464.57712,653.54002 464.57712,656.34871 L 464.57884,657.26437 L 471.24221,657.26437 L 471.24221,657.26437 z" id="path3716" style="fill:#7f2607"/>
      <path d="M 474.10578,652.24027 L 478.94126,652.24027 L 478.94126,674.05997 C 478.94126,681.24632 481.29213,682.55293 486.06074,682.55293 C 488.28301,682.55293 490.24121,682.35746 491.74501,681.9665 L 491.74501,676.73835 C 491.09171,676.87038 490.24121,676.93554 489.19695,676.93554 C 486.78092,676.93554 485.99558,675.95472 485.99558,673.21119 L 485.99558,652.24027 L 491.74501,652.24027 L 491.74501,647.01382 L 485.99558,647.01382 L 485.99558,637.01877 L 478.94126,637.01877 L 478.94126,647.01382 L 474.10578,647.01382 L 474.10578,652.24027 L 474.10578,652.24027 z" id="path3718" style="fill:#7f2607"/>
      <path d="M 495.40249,682.16198 L 502.45853,682.16198 L 502.45853,661.12418 C 502.45853,654.59113 506.3132,653.15421 509.51457,653.15421 C 510.69086,653.15421 511.93059,653.41656 512.45358,653.54688 L 512.4553,646.36052 C 511.99747,646.2302 511.53964,646.09988 510.7543,646.09988 C 506.77103,646.09817 504.15609,648.58107 502.58885,652.5009 L 502.45853,652.5009 L 502.45853,647.01382 L 495.40249,647.01382 L 495.40249,682.16198 L 495.40249,682.16198 z" id="path3720" style="fill:#7f2607"/>
      <path d="M 533.93206,682.16198 L 540.59714,682.16198 L 540.59714,647.01382 L 533.5411,647.01382 L 533.5411,671.57707 C 533.5411,675.4969 530.79585,677.45853 527.79167,677.45853 C 524.78579,677.45681 523.02135,676.15192 523.02135,672.23209 L 523.02135,647.01382 L 515.96702,647.01382 L 515.96702,671.57707 C 515.96702,680.65818 519.49419,683.07592 524.72063,683.07592 C 528.64217,683.07592 531.97214,681.18116 533.73658,678.04667 L 533.93206,678.04496 L 533.93206,682.16198 L 533.93206,682.16198 z" id="path3722" style="fill:#7f2607"/>
      <path d="M 547.71834,682.16198 L 554.77437,682.16198 L 554.77437,658.57784 C 554.77437,654.0047 557.51791,651.71728 560.32661,651.71728 C 563.26734,651.71728 564.63911,653.48172 564.63911,658.05485 L 564.63911,682.16198 L 571.69515,682.16198 L 571.69515,658.57784 C 571.69515,654.0047 574.43868,651.71728 577.31254,651.71728 C 580.18811,651.71728 581.55988,653.48172 581.55988,658.05485 L 581.55988,682.16198 L 588.61592,682.16198 L 588.61592,655.44163 C 588.61592,648.64623 585.02188,646.09988 580.05608,646.09988 C 575.81045,646.09817 573.19723,648.0598 571.17216,651.45664 C 570.12618,648.51591 568.03595,646.09988 563.00499,646.09988 C 559.6733,646.09817 556.34162,647.99464 554.57718,651.12913 L 554.3817,651.12913 L 554.3817,647.01382 L 547.71834,647.01382 L 547.71834,682.16198 L 547.71834,682.16198 z" id="path3724" style="fill:#7f2607"/>
      <path d="M 620.16489,665.49498 L 620.16489,661.77063 C 620.16489,651.97106 617.55167,646.09302 607.7521,646.09302 C 596.71107,646.09131 594.75115,655.8926 594.75115,665.10403 C 594.75115,681.36978 601.87235,683.06906 607.62178,683.06906 C 615.26596,683.06906 619.9677,678.17013 619.9677,670.39563 L 613.30605,670.39563 C 613.30605,672.48586 612.71619,678.23529 607.68694,678.23529 C 602.39534,678.23529 601.80719,672.22523 601.80719,667.52006 L 601.80719,665.49498 L 620.16489,665.49498 L 620.16489,665.49498 z M 601.80719,660.66121 L 601.80719,659.94275 C 601.80719,655.36961 603.17896,650.9268 607.68694,650.9268 C 611.67193,650.9268 613.10885,654.32364 613.10885,658.76646 L 613.11057,660.66121 L 601.80719,660.66121 z" id="path3726" style="fill:#7f2607"/>
      <path d="M 625.97776,682.16198 L 633.03209,682.16198 L 633.03209,658.57784 C 633.03209,654.0047 635.77562,651.71728 638.6512,651.71728 C 642.17836,651.71728 643.55013,653.48172 643.55013,658.05485 L 643.55184,682.16198 L 650.60788,682.16198 L 650.60788,655.63711 C 650.60788,648.51591 647.20932,646.09988 641.85256,646.09988 C 637.93273,646.09817 634.60105,647.99464 632.83661,651.12913 L 632.64113,651.12913 L 632.64113,647.01382 L 625.97776,647.01382 L 625.97776,682.16198 L 625.97776,682.16198 z" id="path3728" style="fill:#7f2607"/>
      <path d="M 654.25335,652.24027 L 659.08884,652.24027 L 659.08884,674.05997 C 659.08884,681.24632 661.438,682.55293 666.20832,682.55293 C 668.43059,682.55293 670.38879,682.35746 671.89088,681.9665 L 671.89259,676.73835 C 671.23929,676.87038 670.38879,676.93554 669.34282,676.93554 C 666.9285,676.93554 666.14316,675.95472 666.14316,673.21119 L 666.14316,652.24027 L 671.89259,652.24027 L 671.89259,647.01382 L 666.14316,647.01382 L 666.14316,637.01877 L 659.08884,637.01877 L 659.08884,647.01382 L 654.25335,647.01382 L 654.25335,652.24027 L 654.25335,652.24027 z" id="path3730" style="fill:#7f2607"/>
      <path d="M 698.61294,654.7266 C 698.61294,648.51934 693.64713,646.10331 687.44159,646.10331 C 678.16501,646.1016 675.09396,650.21862 675.09396,657.66561 L 681.75733,657.66561 C 681.75733,654.26877 682.41063,650.93708 687.11408,650.93708 C 690.84015,650.93708 691.94957,652.96216 691.94957,656.16352 C 691.95128,658.80075 690.38061,659.53636 687.83426,660.2754 L 682.34719,661.81007 C 677.57857,663.41504 674.18002,665.08517 674.18002,673.1083 C 674.18002,679.94314 677.70718,683.07935 683.32629,683.07935 C 687.44159,683.07935 690.18513,681.38179 692.07989,677.91807 L 692.21021,677.91807 C 692.4074,681.31491 695.02062,682.55636 698.15511,682.55636 C 699.52859,682.55636 700.76833,682.10025 701.61883,681.70758 L 701.61883,677.13102 C 701.35648,677.26476 700.90036,677.32992 700.44254,677.32992 C 699.39656,677.32992 698.61294,676.12619 698.61294,674.79043 L 698.61294,654.7266 L 698.61294,654.7266 z M 691.95128,669.30336 C 691.95128,674.57781 689.85934,677.85291 685.612,677.85291 C 682.67298,677.85291 681.23434,675.44888 681.23434,672.43957 C 681.23605,669.76462 682.08484,667.62466 684.10991,666.62498 C 686.20014,665.62016 690.11997,664.7508 691.94957,663.28129 L 691.95128,669.30336 L 691.95128,669.30336 z" id="path3732" style="fill:#7f2607"/>
      <path d="M 702.65966,652.24027 L 707.49514,652.24027 L 707.49514,674.05997 C 707.49514,681.24632 709.84601,682.55293 714.61463,682.55293 C 716.83689,682.55293 718.79681,682.35746 720.29889,681.9665 L 720.29889,676.73835 C 719.64559,676.87038 718.79681,676.93554 717.75083,676.93554 C 715.3348,676.93554 714.54947,675.95472 714.54947,673.21119 L 714.55118,652.24027 L 720.29889,652.24027 L 720.29889,647.01382 L 714.55118,647.01382 L 714.55118,637.01877 L 707.49514,637.01877 L 707.49514,647.01382 L 702.65966,647.01382 L 702.65966,652.24027 L 702.65966,652.24027 z" id="path3734" style="fill:#7f2607"/>
      <path d="M 724.28217,682.16198 L 731.33821,682.16198 L 731.33821,647.01382 L 724.28217,647.01382 L 724.28217,682.16198 z M 724.28217,642.04802 L 731.33821,642.04802 L 731.33821,634.99198 L 724.28217,634.99198 L 724.28217,642.04802 z" id="path3736" style="fill:#7f2607"/>
      <path d="M 737.07392,664.58619 C 737.07392,675.49518 740.4056,683.07421 750.14002,683.07421 C 759.93959,683.07421 763.27128,675.4969 763.27128,664.58619 C 763.27128,653.67548 760.39742,646.09817 750.14002,646.09817 C 739.94777,646.09645 737.07392,653.67548 737.07392,664.58619 L 737.07392,664.58619 z M 744.12995,664.58619 C 744.12995,656.81169 745.04389,651.32461 750.14002,651.32461 C 755.3013,651.32289 756.21524,656.81169 756.21524,664.58619 C 756.21695,673.53527 755.3013,677.84777 750.14002,677.84777 C 745.04561,677.84777 744.12995,673.53698 744.12995,664.58619 L 744.12995,664.58619 z" id="path3738" style="fill:#7f2607"/>
      <path d="M 768.69319,682.16198 L 775.74923,682.16198 L 775.74923,658.57784 C 775.74923,654.0047 778.49277,651.71728 781.36663,651.71728 C 784.8955,651.71728 786.26727,653.48172 786.26727,658.05485 L 786.26899,682.16198 L 793.32331,682.16198 L 793.32331,655.63711 C 793.32331,648.51591 789.92646,646.09988 784.56799,646.09988 C 780.64816,646.09817 777.31648,647.99464 775.55375,651.12913 L 775.35828,651.12913 L 775.35828,647.01382 L 768.69319,647.01382 L 768.69319,682.16198 L 768.69319,682.16198 z" id="path3740" style="fill:#7f2607"/>
    </g>
  </g>
</svg>